<svg xmlns="http://www.w3.org/2000/svg" version="1.1" xmlnsXlink="http://www.w3.org/1999/xlink" xmlnsSvgjs="http://svgjs.dev/svgjs" viewBox="0 0 1000 290"><g transform="matrix(1,0,0,1,-0.6060461860396913,0.07076150039671347)"><svg viewBox="0 0 396 115" data-background-color="#ffffff" preserveAspectRatio="xMidYMid meet" height="290" width="1000" xmlns="http://www.w3.org/2000/svg" xmlns:xlink="http://www.w3.org/1999/xlink"><g id="tight-bounds" transform="matrix(1,0,0,1,0.23999428967172776,-0.02805812576258404)"><svg viewBox="0 0 395.5199999999999 115.05611872074755" height="115.05611872074755" width="395.5199999999999"><g><svg viewBox="0 0 395.5199999999999 115.05611872074755" height="115.05611872074755" width="395.5199999999999"><g><svg viewBox="0 0 687.1401024439847 199.88792780284624" height="115.05611872074755" width="395.5199999999999"><g transform="matrix(1,0,0,1,291.6201024439847,0)"><svg viewBox="0 0 395.52 199.88792780284624" height="199.88792780284624" width="395.52"><g id="textblocktransform"><svg viewBox="0 0 395.52 199.88792780284624" height="199.88792780284624" width="395.52" id="textblock"><g><svg viewBox="0 0 395.52 199.88792780284624" height="199.88792780284624" width="395.52"><g transform="matrix(1,0,0,1,0,0)"><svg width="395.52" viewBox="3.6100001335144043 -35.54999923706055 70.33999633789062 35.54999923706055" height="199.88792780284624" data-palette-color="#755bb4"><path d="M3.61-35.55L11.62-35.55 21.88-8.3 32.1-35.55 40.09-35.55 40.09 0 33.94 0 33.94-11.72 34.55-27.39 24.05 0 19.63 0 9.16-27.37 9.77-11.72 9.77 0 3.61 0 3.61-35.55ZM60.91-13.21L53.56-13.21 53.56 0 47.39 0 47.39-35.55 60.98-35.55Q66.94-35.55 70.44-32.45 73.95-29.35 73.95-24.24L73.95-24.24Q73.95-19.02 70.52-16.11 67.09-13.21 60.91-13.21L60.91-13.21ZM53.56-30.57L53.56-18.16 60.98-18.16Q64.28-18.16 66.01-19.71 67.75-21.26 67.75-24.19L67.75-24.19Q67.75-27.08 65.99-28.8 64.23-30.52 61.15-30.57L61.15-30.57 53.56-30.57Z" opacity="1" transform="matrix(1,0,0,1,0,0)" fill="#755bb4" class="undefined-text-0" data-fill-palette-color="primary" id="text-0"></path></svg></g></svg></g></svg></g></svg></g><g transform="matrix(1,0,0,1,0,27.836712701423124)"><svg viewBox="0 0 244.43135999999996 144.2145024" height="144.2145024" width="244.43135999999996"><g><svg version="1.1" xmlns="http://www.w3.org/2000/svg" xmlns:xlink="http://www.w3.org/1999/xlink" x="0" y="0" viewBox="0 0 100 59" enable-background="new 0 0 100 59" xml:space="preserve" height="144.2145024" width="244.43135999999996" class="icon-icon-0" data-fill-palette-color="accent" id="icon-0"><path d="M97.901 18l-0.003 0.001C96.896 7.895 88.372 0 78 0c-3.855 0-7.444 1.11-10.498 3H32.498C29.444 1.11 25.855 0 22 0 11.628 0 3.104 7.895 2.102 18.001L2.099 18C1.751 22.175 0 50.691 0 51c0 4.418 3.581 8 8 8 18.377 0 25.943-15.686 28.666-24h26.668C66.057 43.314 73.623 59 92 59c4.419 0 8-3.582 8-8C100 50.691 98.249 22.175 97.901 18zM22 32c-6.629 0-12-5.373-12-12S15.371 8 22 8s12 5.373 12 12S28.629 32 22 32zM78 32c-6.629 0-12-5.373-12-12S71.371 8 78 8s12 5.373 12 12S84.629 32 78 32z" fill="#755bb4" data-fill-palette-color="accent"></path><polygon points="31,17 25,17 25,11 19,11 19,17 13,17 13,23 19,23 19,29 25,29 25,23 31,23 " fill="#755bb4" data-fill-palette-color="accent"></polygon><path d="M78 16c0 2.21-1.79 4-4 4-2.205 0-4-1.79-4-4s1.795-4 4-4C76.21 12 78 13.79 78 16z" fill="#755bb4" data-fill-palette-color="accent"></path><path d="M86 24c0 2.21-1.79 4-4 4-2.205 0-4-1.79-4-4s1.795-4 4-4C84.21 20 86 21.79 86 24z" fill="#755bb4" data-fill-palette-color="accent"></path></svg></g></svg></g></svg></g></svg></g><defs></defs></svg><rect width="395.5199999999999" height="115.05611872074755" fill="none" stroke="none" visibility="hidden"></rect></g></svg></g></svg>